PathFileType	4	(X/Y/Z)	C:\Users\WrightLab\Desktop\Jo\P2_Trial27.trc
DataRate	CameraRate	NumFrames	NumMarkers	Units	OrigDataRate	OrigDataStartFrame	OrigNumFrames
100.00	100.00	       45	19	mm	100.00	1	       501
Frame#	Time	Headset_Front			Headset_Back			Headset_Left			Headset_Right			Left_Shoulder			Right_Shoulder			Sternum			C7			Left Elbow			Right Elbow			Left Wrist			Right Wrist			Left ASIS			Right ASIS			S2			Left Knee			Right Knee			Left Ankle			Right Ankle			
		X1	Y1	Z1	X2	Y2	Z2	X3	Y3	Z3	X4	Y4	Z4	X5	Y5	Z5	X6	Y6	Z6	X7	Y7	Z7	X8	Y8	Z8	X9	Y9	Z9	X10	Y10	Z10	X11	Y11	Z11	X12	Y12	Z12	X13	Y13	Z13	X14	Y14	Z14	X15	Y15	Z15	X16	Y16	Z16	X17	Y17	Z17	X18	Y18	Z18	X19	Y19	Z19	

1	0.000	-329.83502	915.15350	-1525.88574																						-72.97040	1079.17224	-1450.08813	-566.43591	1064.01367	-1350.18604							-221.97861	1020.76733	-1296.05981							-110.25092	425.81342	-1398.38611										
2	0.010	-328.88654	915.37268	-1527.02771																						-71.95351	1079.07593	-1451.34338	-566.37079	1064.05969	-1349.87769							-221.87114	1021.02820	-1295.41992							-109.17329	426.41489	-1401.31873										
3	0.020	-327.93344	915.61786	-1528.15161																						-71.59310	1079.73352	-1449.17578	-566.32239	1064.05847	-1349.64050							-221.22845	1021.15479	-1296.92297							-108.87543	425.94141	-1401.88684										
4	0.030	-326.98810	915.59174	-1529.02222																						-71.26147	1080.24109	-1447.91614	-567.55005	1067.69031	-1337.74597							-221.14130	1021.33679	-1296.39893							-108.72739	425.62921	-1402.33984										
5	0.040	-325.95618	915.47223	-1529.54053																						-69.02179	1080.83923	-1448.07959	-565.86823	1064.29480	-1347.47156							-220.58380	1020.64618	-1297.01538							-108.12934	425.96268	-1403.55835										
6	0.050	-325.05954	915.39368	-1530.43530																						-67.19655	1081.84521	-1447.15955	-565.34027	1062.84253	-1346.72095							-220.50671	1020.75067	-1296.54297							-108.02353	425.91086	-1403.50378										
7	0.060	-324.21497	915.23016	-1531.08398																						-65.75116	1081.79565	-1445.54700	-564.77844	1063.34290	-1344.08582							-220.38625	1020.93085	-1295.80737							-106.35281	426.37927	-1405.58984										
8	0.070	-323.27176	915.33594	-1532.23743																						-64.59394	1082.05188	-1444.68188	-564.43866	1063.64478	-1342.49219							-219.38287	1020.41443	-1297.62061							-106.41223	426.08667	-1406.33191										
9	0.080	-322.43137	915.21802	-1532.68188																						-64.03204	1082.60645	-1441.67065	-562.93555	1061.72742	-1346.14050							-218.48070	1020.40887	-1299.02722							-105.77353	426.49536	-1407.91321										
10	0.090	-321.62000	915.36353	-1533.70239																						-61.96719	1083.04431	-1440.86755	-562.54083	1061.33179	-1345.00110							-217.73875	1019.57751	-1300.16675							-105.41024	425.58264	-1408.08923										
11	0.100	-320.80139	915.13239	-1533.91101																						-59.99965	1083.67163	-1440.09741	-561.78619	1060.66956	-1345.71423							-216.13150	1019.00165	-1303.57971							-105.41024	425.58264	-1408.08923										
12	0.110	-320.07971	915.11664	-1534.55676																						-59.65732	1084.22876	-1437.54236	-560.96515	1059.57251	-1346.20703							-215.96490	1019.33521	-1302.56921							-104.80476	426.01505	-1409.75500										
13	0.120	-319.41266	915.17188	-1535.04822																						-58.77753	1084.30115	-1436.17639	-560.28442	1058.97998	-1346.13916							-215.72591	1019.69794	-1301.10266							-104.86801	425.93692	-1410.02905										
14	0.130	-318.65079	915.18744	-1535.57129																						-56.78627	1083.99280	-1437.87280	-559.62213	1062.52576	-1334.32874							-215.63979	1019.86212	-1300.57910							-103.31680	426.46136	-1411.70154										
15	0.140	-317.81683	915.10461	-1535.71948																						-56.29513	1084.52026	-1434.86548	-558.24530	1059.07031	-1346.97607							-215.55910	1019.95990	-1300.08032							-102.24407	425.99966	-1412.85474										
16	0.150	-317.20712	915.27765	-1536.42871																						-55.91238	1084.74792	-1433.51636	-556.77740	1059.83936	-1347.54614							-215.39574	1020.25970	-1299.08557							-102.19731	425.77252	-1413.28369										
17	0.160	-316.38586	915.33459	-1536.90833																						-53.61694	1084.46350	-1436.32202	-555.56708	1062.63647	-1337.09424							-213.28246	1018.46594	-1305.09607							-101.98667	425.63300	-1413.25671										
18	0.170	-315.54773	915.43646	-1537.58337																						-53.35719	1084.86487	-1434.62463	-554.58649	1059.56555	-1347.31531							-213.14006	1018.78760	-1304.23486							-101.07832	424.37650	-1412.27844										
19	0.180	-314.70041	915.44250	-1537.82581																						-53.17463	1084.87219	-1434.05103	-553.03131	1063.20813	-1340.15417							-213.04166	1018.95551	-1303.63184							-100.96966	424.39041	-1412.07397										
20	0.190	-313.75220	915.40979	-1538.23206																						-53.02686	1084.85498	-1433.57886	-552.94525	1060.92114	-1347.79272							-212.97987	1019.06860	-1303.25427							-100.09175	424.92871	-1412.89709										
21	0.200	-312.64410	915.18518	-1537.94275																						-52.75437	1084.75159	-1432.65479	-551.28314	1060.36914	-1352.17981							-212.94826	1019.11115	-1303.05896							-99.29733	425.59814	-1413.94946										
22	0.210	-311.68774	915.32458	-1538.72375																						-52.53502	1084.87976	-1431.31055	-550.42194	1060.51001	-1353.53821							-212.92249	1019.14410	-1302.89941							-97.95206	425.58072	-1413.67908										
23	0.220	-310.58029	915.39264	-1539.43652																						-51.39346	1083.90088	-1431.62817	-548.53406	1063.85620	-1345.09082							-212.89270	1019.15790	-1302.71167							-97.82265	425.66211	-1413.29163										
24	0.230	-309.47308	915.51587	-1540.03992																						-50.46024	1083.57080	-1432.73926	-547.96338	1063.87646	-1345.63843							-212.89227	1019.15784	-1302.70886							-97.51350	425.73416	-1412.63843										
25	0.240	-308.34518	915.71930	-1540.74438																						-50.14810	1083.64551	-1430.96545	-547.39673	1063.93054	-1346.04858							-212.88911	1019.13348	-1302.68518							-97.31232	425.75992	-1412.26062										
26	0.250	-307.24173	915.51416	-1540.71387																						-49.91870	1083.64429	-1430.12012	-546.58984	1064.83252	-1348.53516							-212.86742	1019.08514	-1302.53992							-96.91191	425.49500	-1412.21326										
27	0.260	-306.27438	915.67957	-1541.24133																						-48.75941	1083.16528	-1430.38208	-546.43475	1061.62573	-1362.68835							-212.83102	1019.10156	-1302.31030							-96.77695	425.63885	-1411.67883										
28	0.270	-305.18951	915.73743	-1541.83447																						-47.55356	1082.60449	-1429.52478	-544.36139	1065.09338	-1350.84009							-212.75934	1019.17584	-1301.86401							-97.81332	423.92871	-1408.27661										
29	0.280	-304.39093	915.84229	-1542.47961																						-46.18663	1081.78442	-1429.82068	-543.36847	1065.16016	-1351.36841							-212.14661	1018.08801	-1303.79846							-97.30658	423.97748	-1407.45508										
30	0.290	-303.46472	915.76538	-1542.88232																						-45.06652	1081.65161	-1430.37500	-542.44373	1065.55432	-1352.39063							-210.69902	1017.24536	-1308.21826							-96.56668	423.64227	-1407.42957										
31	0.300	-302.57269	915.73370	-1543.04785																						-44.79275	1081.70386	-1428.48401	-541.33490	1065.48853	-1352.69080							-210.69637	1017.17450	-1308.19104							-96.45662	423.59940	-1407.35107										
32	0.310	-301.82651	915.48779	-1543.17590																						-43.93121	1080.70349	-1428.43591	-540.61713	1065.98450	-1353.90015							-210.58549	1017.33679	-1307.50562							-96.17503	423.81976	-1406.41614										
33	0.320	-301.09668	915.32092	-1543.42749																						-43.60966	1080.20142	-1427.65698	-539.61597	1065.96716	-1354.23999							-210.53726	1017.42010	-1307.20935							-95.53393	423.83084	-1405.38171										
34	0.330	-300.42828	915.38788	-1544.21985																						-41.05533	1080.02734	-1431.15405	-538.66882	1066.26208	-1355.07373							-210.49707	1017.51788	-1306.96643							-94.92741	423.61707	-1405.29578										
35	0.340	-299.80811	915.05701	-1544.33533																						-41.42731	1078.95996	-1427.93005	-537.10596	1066.19824	-1355.97925							-210.50204	1017.47009	-1306.99133							-94.30766	423.30096	-1403.95837										
36	0.350	-299.27710	914.84882	-1544.63818																						-40.91003	1078.97070	-1425.70288	-536.43793	1066.25806	-1355.72876							-210.49200	1017.49036	-1306.93018							-93.75661	422.88486	-1402.06238										
37	0.360	-298.74664	914.97693	-1545.28918																						-40.62245	1078.82373	-1424.77905	-535.79285	1066.31897	-1355.50171							-210.53279	1017.36963	-1307.17334							-93.30477	422.84583	-1401.44116										
38	0.370	-298.04709	914.97491	-1545.65186																						-40.14388	1078.40479	-1423.79407	-536.30652	1064.31750	-1367.17542							-210.56676	1017.29980	-1307.38037							-92.27698	423.06775	-1401.16711										
39	0.380	-297.42450	915.15680	-1546.38611																						-39.83353	1078.44897	-1422.62585	-533.42395	1067.79626	-1358.30518							-210.65352	1017.06140	-1307.90039							-92.26421	422.32202	-1399.46814										
40	0.390	-296.90128	915.16736	-1546.70459																						-38.56524	1077.36316	-1422.67542	-532.78369	1067.92810	-1357.91882							-210.82530	1016.74481	-1308.95276							-92.39083	421.55835	-1398.02808										
41	0.400	-296.37424	915.32593	-1547.32190																						-38.39450	1077.38379	-1421.86707	-531.62811	1065.25354	-1370.05090							-211.56258	1016.43970	-1308.00330							-91.96277	421.61435	-1397.23499										
42	0.410	-295.79813	915.52368	-1547.97314																						-37.34647	1077.05762	-1422.48267	-530.65765	1066.24402	-1369.47791							-212.60973	1016.88727	-1306.57898							-91.17620	421.64111	-1397.76990										
43	0.420	-295.28741	915.72797	-1548.45178																						-37.34566	1076.78442	-1420.17566	-530.40369	1067.43762	-1369.26855							-212.83685	1016.44275	-1307.96338							-91.77431	420.89505	-1396.57190										
44	0.430	-294.87265	916.02448	-1549.00305																						-37.06828	1076.46558	-1419.59570	-529.67407	1070.14807	-1361.05371							-214.27461	1017.51971	-1304.10803							-92.10052	420.36185	-1395.23474										
45	0.440	-294.49292	916.28632	-1549.49927																						-35.97701	1076.08813	-1420.40125	-530.07159	1068.29187	-1367.78699							-215.57222	1016.96167	-1302.34766							-91.99054	420.37628	-1395.03125										
